<svg width="677" height="379" viewBox="0 0 677 379" version="1.1" xmlns="http://www.w3.org/2000/svg" xmlns:xlink="http://www.w3.org/1999/xlink">
<title>form_elevator</title>
<desc>Created using Figma</desc>
<g id="Canvas" transform="translate(-2093 -5028)">
<g id="form_elevator">
<g id="Mask Group">
<mask id="mask0_alpha" mask-type="alpha">
<g id="Rectangle">
<use xlink:href="#path0_fill" transform="translate(2093 5028)" fill="#DFF7F1"/>
</g>
</mask>
<g id="Rectangle" mask="url(#mask0_alpha)">
<use xlink:href="#path0_fill" transform="translate(2093 5028)" fill="#DFF7F1"/>
</g>
<g id="Rectangle" mask="url(#mask0_alpha)">
<use xlink:href="#path1_fill" transform="translate(2093 5341)" fill="#F5FBFF"/>
</g>
<g id="Rectangle 2" mask="url(#mask0_alpha)">
<use xlink:href="#path2_fill" transform="matrix(-1 0 0 1 2567 5341)" fill="#C1E8DE"/>
</g>
<g id="Group" mask="url(#mask0_alpha)">
<g id="Rectangle 3.6">
<use xlink:href="#path3_fill" transform="translate(2287 5105)" fill="#C1E8DE"/>
</g>
<g id="Rectangle 3.1">
<use xlink:href="#path4_fill" transform="translate(2290 5109)" fill="#20E8B6"/>
</g>
<g id="Rectangle 3.2">
<use xlink:href="#path5_fill" transform="translate(2319 5118)" fill="#E3FFF8"/>
</g>
<g id="Rectangle 3.5">
<use xlink:href="#path6_fill" transform="translate(2427 5118)" fill="#2AC7A0"/>
</g>
</g>
<g id="elevator_buttons" mask="url(#mask0_alpha)">
<g id="Rectangle 2">
<use xlink:href="#path7_fill" transform="matrix(-1 0 0 1 2264 5204)" fill="#FFFFFF"/>
</g>
<g id="Rectangle 2">
<use xlink:href="#path8_fill" transform="matrix(-1 0 0 1 2264 5249)" fill="#C1E8DE"/>
</g>
<g id="Ellipse">
<use xlink:href="#path9_fill" transform="translate(2248 5214)" fill="#20E8B6"/>
</g>
<g id="Ellipse">
<use xlink:href="#path9_fill" transform="translate(2248 5232)" fill="#FF696A"/>
</g>
</g>
<g id="elevator_buttons" mask="url(#mask0_alpha)">
<g id="Rectangle 2">
<use xlink:href="#path10_fill" transform="matrix(-1 0 0 1 2455 5058)" fill="#FFFFFF"/>
</g>
<g id="Rectangle 2">
<use xlink:href="#path11_fill" transform="matrix(-1 0 0 1 2455 5081)" fill="#C1E8DE"/>
</g>
<g id="Polygon">
<use xlink:href="#path12_fill" transform="translate(2408 5063)" fill="#20E8B6"/>
</g>
<g id="Polygon">
<use xlink:href="#path12_fill" transform="matrix(-0.999981 0.00615003 -0.00615003 -0.999981 2446.1 5075)" fill="#20E8B6"/>
</g>
</g>
</g>
</g>
</g>
<defs>
<path id="path0_fill" d="M 0 20C 0 8.95431 8.95431 0 20 0L 657 0C 668.046 0 677 8.95431 677 20L 677 359C 677 370.046 668.046 379 657 379L 20 379C 8.95431 379 0 370.046 0 359L 0 20Z"/>
<path id="path1_fill" d="M 0 0L 677 0L 677 66L 0 66L 0 0Z"/>
<path id="path2_fill" d="M 0 0L 280 0L 280 5L 0 5L 0 0Z"/>
<path id="path3_fill" d="M 0 0L 280 0L 280 236L 0 236L 0 0Z"/>
<path id="path4_fill" d="M 0 0L 274 0L 274 232L 0 232L 0 0Z"/>
<path id="path5_fill" d="M 0 0L 217 0L 217 223L 0 223L 0 0Z"/>
<path id="path6_fill" d="M 0 0L 2 0L 2 222L 0 222L 0 0Z"/>
<path id="path7_fill" d="M 0 0L 22 0L 22 45L 0 45L 0 0Z"/>
<path id="path8_fill" d="M 0 0L 22 0L 22 5L 0 5L 0 0Z"/>
<path id="path9_fill" d="M 10 5C 10 7.76142 7.76142 10 5 10C 2.23858 10 0 7.76142 0 5C 0 2.23858 2.23858 0 5 0C 7.76142 0 10 2.23858 10 5Z"/>
<path id="path10_fill" d="M 0 0L 57 0L 57 23L 0 23L 0 0Z"/>
<path id="path11_fill" d="M 0 0L 57 0L 57 4L 0 4L 0 0Z"/>
<path id="path12_fill" d="M 8.5 0L 15.8612 12L 1.13878 12L 8.5 0Z"/>
</defs>
</svg>
