<svg width="200" height="200" viewBox="0 0 200 200" version="1.1" xmlns="http://www.w3.org/2000/svg" xmlns:xlink="http://www.w3.org/1999/xlink">
<title>form_build_year</title>
<desc>Created using Figma</desc>
<g id="Canvas" transform="translate(960 -5955)">
<g id="form_build_year">
<g id="Rectangle">
<use xlink:href="#path0_fill" transform="translate(-960 5955)" fill="#FFFFFF"/>
</g>
<g id="Rectangle">
<mask id="mask0_outline_ins">
<use xlink:href="#path1_fill" fill="white" transform="translate(-905 6010)"/>
</mask>
<g mask="url(#mask0_outline_ins)">
<use xlink:href="#path2_stroke_2x" transform="translate(-905 6010)" fill="#20E8B6"/>
</g>
</g>
<g id="1970">
<use xlink:href="#path3_fill" transform="translate(-897 6046)" fill="#20E8B6"/>
</g>
<g id="Rectangle 2">
<use xlink:href="#path4_fill" transform="translate(-883 6004)" fill="#20E8B6"/>
</g>
<g id="Rectangle 2.1">
<use xlink:href="#path4_fill" transform="translate(-845 6004)" fill="#20E8B6"/>
</g>
</g>
</g>
<defs>
<path id="path0_fill" d="M 0 0L 200 0L 200 200L 0 200L 0 0Z"/>
<path id="path1_fill" d="M 0 12C 0 5.37258 5.37258 0 12 0L 78 0C 84.6274 0 90 5.37258 90 12L 90 27L 90 78C 90 84.6274 84.6274 90 78 90L 12 90C 5.37258 90 0 84.6274 0 78L 0 27L 0 12Z"/>
<path id="path2_stroke_2x" d="M 0 29.5L 90 29.5L 90 24.5L 0 24.5L 0 29.5ZM 12 5L 78 5L 78 -5L 12 -5L 12 5ZM 78 85L 12 85L 12 95L 78 95L 78 85ZM 5 78L 5 27L -5 27L -5 78L 5 78ZM 5 27L 5 12L -5 12L -5 27L 5 27ZM 85 12L 85 27L 95 27L 95 12L 85 12ZM 85 27L 85 78L 95 78L 95 27L 85 27ZM 12 85C 8.13401 85 5 81.866 5 78L -5 78C -5 87.3888 2.61116 95 12 95L 12 85ZM 78 95C 87.3888 95 95 87.3888 95 78L 85 78C 85 81.866 81.866 85 78 85L 78 95ZM 78 5C 81.866 5 85 8.13401 85 12L 95 12C 95 2.61116 87.3888 -5 78 -5L 78 5ZM 12 -5C 2.61116 -5 -5 2.61116 -5 12L 5 12C 5 8.13401 8.13401 5 12 5L 12 -5Z"/>
<path id="path3_fill" d="M 12.5156 30L 8 30L 8 12.5938L 2.60938 14.2656L 2.60938 10.5938L 12.0312 7.21875L 12.5156 7.21875L 12.5156 30ZM 30.4844 20.9062C 29.3073 22.0625 27.9323 22.6406 26.3594 22.6406C 24.349 22.6406 22.7396 21.9531 21.5312 20.5781C 20.3229 19.1927 19.7188 17.3281 19.7188 14.9844C 19.7188 13.4948 20.0417 12.1302 20.6875 10.8906C 21.3438 9.64062 22.2552 8.67188 23.4219 7.98438C 24.5885 7.28646 25.901 6.9375 27.3594 6.9375C 28.8594 6.9375 30.1927 7.3125 31.3594 8.0625C 32.526 8.8125 33.4323 9.89062 34.0781 11.2969C 34.724 12.7031 35.0521 14.3125 35.0625 16.125L 35.0625 17.7969C 35.0625 21.5885 34.1198 24.5677 32.2344 26.7344C 30.349 28.901 27.6771 30.0573 24.2188 30.2031L 23.1094 30.2188L 23.1094 26.4531L 24.1094 26.4375C 28.0365 26.2604 30.1615 24.4167 30.4844 20.9062ZM 27.4688 19.1875C 28.1979 19.1875 28.8229 19 29.3438 18.625C 29.875 18.25 30.276 17.7969 30.5469 17.2656L 30.5469 15.4062C 30.5469 13.875 30.2552 12.6875 29.6719 11.8438C 29.0885 11 28.3073 10.5781 27.3281 10.5781C 26.4219 10.5781 25.6771 10.9948 25.0938 11.8281C 24.5104 12.651 24.2188 13.6875 24.2188 14.9375C 24.2188 16.1771 24.5 17.1979 25.0625 18C 25.6354 18.7917 26.4375 19.1875 27.4688 19.1875ZM 53.7656 9.78125L 44.9688 30L 40.2031 30L 49.0156 10.9062L 37.7031 10.9062L 37.7031 7.25L 53.7656 7.25L 53.7656 9.78125ZM 71.9844 20.5938C 71.9844 23.7396 71.3333 26.1458 70.0312 27.8125C 68.7292 29.4792 66.8229 30.3125 64.3125 30.3125C 61.8333 30.3125 59.9375 29.4948 58.625 27.8594C 57.3125 26.224 56.6406 23.8802 56.6094 20.8281L 56.6094 16.6406C 56.6094 13.4635 57.2656 11.0521 58.5781 9.40625C 59.901 7.76042 61.8021 6.9375 64.2812 6.9375C 66.7604 6.9375 68.6562 7.75521 69.9688 9.39062C 71.2812 11.0156 71.9531 13.3542 71.9844 16.4062L 71.9844 20.5938ZM 67.4688 16C 67.4688 14.1146 67.2083 12.7448 66.6875 11.8906C 66.1771 11.026 65.375 10.5938 64.2812 10.5938C 63.2188 10.5938 62.4323 11.0052 61.9219 11.8281C 61.4219 12.6406 61.1562 13.9167 61.125 15.6562L 61.125 21.1875C 61.125 23.0417 61.375 24.4219 61.875 25.3281C 62.3854 26.224 63.1979 26.6719 64.3125 26.6719C 65.4167 26.6719 66.2135 26.2396 66.7031 25.375C 67.1927 24.5104 67.4479 23.1875 67.4688 21.4062L 67.4688 16Z"/>
<path id="path4_fill" d="M 0 0L 7 0L 7 18L 0 18L 0 0Z"/>
</defs>
</svg>
