<svg width="676" height="377" viewBox="0 0 676 377" version="1.1" xmlns="http://www.w3.org/2000/svg" xmlns:xlink="http://www.w3.org/1999/xlink">
<title>form_cellar</title>
<desc>Created using Figma</desc>
<g id="Canvas" transform="translate(-2873 -5028)">
<g id="form_cellar">
<g id="Mask Group">
<mask id="mask0_alpha" mask-type="alpha">
<g id="Rectangle">
<use xlink:href="#path0_fill" transform="translate(2873 5028)" fill="#DFF7F1"/>
</g>
</mask>
<g id="Rectangle" mask="url(#mask0_alpha)">
<use xlink:href="#path0_fill" transform="translate(2873 5028)" fill="#E8F7FF"/>
</g>
<g id="Rectangle" mask="url(#mask0_alpha)">
<use xlink:href="#path1_fill" transform="translate(2873 5337)" fill="#DFF7F1"/>
</g>
<g id="coca_bottle" mask="url(#mask0_alpha)">
<g id="Rectangle 2">
<use xlink:href="#path2_fill" transform="translate(3055 5151)" fill="#FAFFFE"/>
</g>
<g id="Rectangle 3">
<use xlink:href="#path3_fill" transform="translate(3055 5178)" fill="#C2FFF0"/>
</g>
<g id="Rectangle 3.1">
<use xlink:href="#path4_fill" transform="translate(3055 5179)" fill="#20E8B6"/>
</g>
<g id="Rectangle 3.2">
<use xlink:href="#path5_fill" transform="translate(3063 5151)" fill="#20E8B6"/>
</g>
<g id="Rectangle 3.3">
<use xlink:href="#path6_fill" transform="translate(3063 5158)" fill="#20E8B6"/>
</g>
</g>
<g id="coca_bottle" mask="url(#mask0_alpha)">
<g id="Rectangle 2">
<use xlink:href="#path2_fill" transform="translate(3088 5151)" fill="#FAFFFE"/>
</g>
<g id="Rectangle 3">
<use xlink:href="#path3_fill" transform="translate(3088 5178)" fill="#C2FFF0"/>
</g>
<g id="Rectangle 3.1">
<use xlink:href="#path4_fill" transform="translate(3088 5179)" fill="#20E8B6"/>
</g>
<g id="Rectangle 3.2">
<use xlink:href="#path5_fill" transform="translate(3096 5151)" fill="#20E8B6"/>
</g>
<g id="Rectangle 3.3">
<use xlink:href="#path6_fill" transform="translate(3096 5158)" fill="#20E8B6"/>
</g>
</g>
<g id="coca_bottle" mask="url(#mask0_alpha)">
<g id="Rectangle 2">
<use xlink:href="#path2_fill" transform="translate(3122 5151)" fill="#FAFFFE"/>
</g>
<g id="Rectangle 3">
<use xlink:href="#path3_fill" transform="translate(3122 5178)" fill="#C2FFF0"/>
</g>
<g id="Rectangle 3.1">
<use xlink:href="#path4_fill" transform="translate(3122 5179)" fill="#20E8B6"/>
</g>
<g id="Rectangle 3.2">
<use xlink:href="#path5_fill" transform="translate(3130 5151)" fill="#20E8B6"/>
</g>
<g id="Rectangle 3.3">
<use xlink:href="#path6_fill" transform="translate(3130 5158)" fill="#20E8B6"/>
</g>
</g>
<g id="coca_bottle" mask="url(#mask0_alpha)">
<g id="Rectangle 2">
<use xlink:href="#path2_fill" transform="translate(3155 5151)" fill="#FAFFFE"/>
</g>
<g id="Rectangle 3">
<use xlink:href="#path3_fill" transform="translate(3155 5178)" fill="#C2FFF0"/>
</g>
<g id="Rectangle 3.1">
<use xlink:href="#path4_fill" transform="translate(3155 5179)" fill="#20E8B6"/>
</g>
<g id="Rectangle 3.2">
<use xlink:href="#path5_fill" transform="translate(3163 5151)" fill="#20E8B6"/>
</g>
<g id="Rectangle 3.3">
<use xlink:href="#path6_fill" transform="translate(3163 5158)" fill="#20E8B6"/>
</g>
</g>
<g id="coca_bottle" mask="url(#mask0_alpha)">
<g id="Rectangle 2">
<use xlink:href="#path7_fill" transform="translate(3218 5145)" fill="#FAFFFE"/>
</g>
<g id="Rectangle 3">
<use xlink:href="#path8_fill" transform="translate(3218 5175.07)" fill="#C2FFF0"/>
</g>
<g id="Rectangle 3.1">
<use xlink:href="#path9_fill" transform="translate(3218 5176.19)" fill="#20E8B6"/>
</g>
<g id="Rectangle 3.2">
<use xlink:href="#path10_fill" transform="translate(3228.67 5144)" fill="#20E8B6"/>
</g>
</g>
<g id="milk_bottle" mask="url(#mask0_alpha)">
<g id="Rectangle 2">
<use xlink:href="#path11_fill" transform="translate(3120 5067)" fill="#9EFFE6"/>
</g>
<g id="Rectangle 2.1">
<use xlink:href="#path12_fill" transform="translate(3120 5053)" fill="#FFFFFF"/>
</g>
<g id="Rectangle 2.3">
<use xlink:href="#path13_fill" transform="translate(3120 5078)" fill="#20E8B6"/>
</g>
<g id="Ellipse">
<use xlink:href="#path14_fill" transform="translate(3131 5056)" fill="#20E8B6"/>
</g>
<g id="Rectangle 2.2">
<use xlink:href="#path15_fill" transform="translate(3120 5048)" fill="#9EFFE6"/>
</g>
</g>
<g id="milk_bottle" mask="url(#mask0_alpha)">
<g id="Rectangle 2">
<use xlink:href="#path11_fill" transform="translate(3158 5067)" fill="#9EFFE6"/>
</g>
<g id="Rectangle 2.1">
<use xlink:href="#path12_fill" transform="translate(3158 5053)" fill="#FFFFFF"/>
</g>
<g id="Rectangle 2.3">
<use xlink:href="#path13_fill" transform="translate(3158 5078)" fill="#20E8B6"/>
</g>
<g id="Ellipse">
<use xlink:href="#path14_fill" transform="translate(3169 5056)" fill="#20E8B6"/>
</g>
<g id="Rectangle 2.2">
<use xlink:href="#path15_fill" transform="translate(3158 5048)" fill="#9EFFE6"/>
</g>
</g>
<g id="milk_bottle" mask="url(#mask0_alpha)">
<g id="Rectangle 2">
<use xlink:href="#path11_fill" transform="translate(3195 5067)" fill="#9EFFE6"/>
</g>
<g id="Rectangle 2.1">
<use xlink:href="#path12_fill" transform="translate(3195 5053)" fill="#FFFFFF"/>
</g>
<g id="Rectangle 2.3">
<use xlink:href="#path13_fill" transform="translate(3195 5078)" fill="#20E8B6"/>
</g>
<g id="Ellipse">
<use xlink:href="#path14_fill" transform="translate(3206 5056)" fill="#20E8B6"/>
</g>
<g id="Rectangle 2.2">
<use xlink:href="#path15_fill" transform="translate(3195 5048)" fill="#9EFFE6"/>
</g>
</g>
<g id="apple" mask="url(#mask0_alpha)">
<g id="Ellipse">
<use xlink:href="#path16_fill" transform="translate(3067.85 5087.48)" fill="#9EFFE6"/>
</g>
<g id="Rectangle 2">
<use xlink:href="#path17_fill" transform="matrix(0.987826 0.155564 -0.155564 0.987826 3081.74 5080.57)" fill="#20E8B6"/>
</g>
<g id="Rectangle 3">
<use xlink:href="#path18_fill" transform="matrix(0.985526 0.169526 -0.169526 0.985526 3083.68 5086)" fill="#254D43"/>
</g>
</g>
<g id="apple" mask="url(#mask0_alpha)">
<g id="Ellipse">
<use xlink:href="#path16_fill" transform="translate(3033.85 5087.48)" fill="#9EFFE6"/>
</g>
<g id="Rectangle 2">
<use xlink:href="#path17_fill" transform="matrix(0.987826 0.155564 -0.155564 0.987826 3047.74 5080.57)" fill="#20E8B6"/>
</g>
<g id="Rectangle 3">
<use xlink:href="#path18_fill" transform="matrix(0.985526 0.169526 -0.169526 0.985526 3049.68 5086)" fill="#254D43"/>
</g>
</g>
<g id="can" mask="url(#mask0_alpha)">
<g id="Rectangle">
<use xlink:href="#path19_fill" transform="translate(3351 5084)" fill="#20E8B6"/>
</g>
<g id="Rectangle">
<use xlink:href="#path20_fill" transform="translate(3351 5099)" fill="#C9FFF2"/>
</g>
<g id="Ellipse">
<use xlink:href="#path21_fill" transform="translate(3356 5092)" fill="#8AFFE2"/>
</g>
<g id="Rectangle">
<use xlink:href="#path22_fill" transform="translate(3350 5082)" fill="#46D4B0"/>
</g>
<g id="Rectangle">
<use xlink:href="#path22_fill" transform="translate(3350 5113)" fill="#46D4B0"/>
</g>
</g>
<g id="can" mask="url(#mask0_alpha)">
<g id="Rectangle">
<use xlink:href="#path19_fill" transform="translate(3321 5084)" fill="#20E8B6"/>
</g>
<g id="Rectangle">
<use xlink:href="#path20_fill" transform="translate(3321 5099)" fill="#C9FFF2"/>
</g>
<g id="Ellipse">
<use xlink:href="#path21_fill" transform="translate(3326 5092)" fill="#8AFFE2"/>
</g>
<g id="Rectangle">
<use xlink:href="#path22_fill" transform="translate(3320 5082)" fill="#46D4B0"/>
</g>
<g id="Rectangle">
<use xlink:href="#path22_fill" transform="translate(3320 5113)" fill="#46D4B0"/>
</g>
</g>
<g id="can" mask="url(#mask0_alpha)">
<g id="Rectangle">
<use xlink:href="#path19_fill" transform="translate(3260 5084)" fill="#20E8B6"/>
</g>
<g id="Rectangle">
<use xlink:href="#path20_fill" transform="translate(3260 5099)" fill="#C9FFF2"/>
</g>
<g id="Ellipse">
<use xlink:href="#path21_fill" transform="translate(3265 5092)" fill="#8AFFE2"/>
</g>
<g id="Rectangle">
<use xlink:href="#path22_fill" transform="translate(3259 5082)" fill="#46D4B0"/>
</g>
<g id="Rectangle">
<use xlink:href="#path22_fill" transform="translate(3259 5113)" fill="#46D4B0"/>
</g>
</g>
<g id="can" mask="url(#mask0_alpha)">
<g id="Rectangle">
<use xlink:href="#path19_fill" transform="translate(3290 5084)" fill="#20E8B6"/>
</g>
<g id="Rectangle">
<use xlink:href="#path20_fill" transform="translate(3290 5099)" fill="#C9FFF2"/>
</g>
<g id="Ellipse">
<use xlink:href="#path21_fill" transform="translate(3295 5092)" fill="#8AFFE2"/>
</g>
<g id="Rectangle">
<use xlink:href="#path22_fill" transform="translate(3289 5082)" fill="#46D4B0"/>
</g>
<g id="Rectangle">
<use xlink:href="#path22_fill" transform="translate(3289 5113)" fill="#46D4B0"/>
</g>
</g>
<g id="tissue" mask="url(#mask0_alpha)">
<g id="Rectangle">
<use xlink:href="#path23_fill" transform="translate(3105 5252)" fill="#FAFFFE"/>
</g>
<g id="Rectangle">
<use xlink:href="#path24_fill" transform="translate(3132 5252)" fill="#D1FFF6"/>
</g>
<g id="Rectangle">
<use xlink:href="#path23_fill" transform="translate(3142 5252)" fill="#FAFFFE"/>
</g>
<g id="Rectangle">
<use xlink:href="#path24_fill" transform="translate(3169 5252)" fill="#D1FFF6"/>
</g>
<g id="Rectangle 2">
<use xlink:href="#path25_fill" transform="translate(3105 5271)" fill="#20E8B6"/>
</g>
<g id="Rectangle 2.1">
<use xlink:href="#path26_fill" transform="translate(3105 5281.5)" fill="#C2FFF0"/>
</g>
</g>
<g id="tissue" mask="url(#mask0_alpha)">
<g id="Rectangle">
<use xlink:href="#path23_fill" transform="translate(3184 5252)" fill="#FAFFFE"/>
</g>
<g id="Rectangle">
<use xlink:href="#path24_fill" transform="translate(3211 5252)" fill="#D1FFF6"/>
</g>
<g id="Rectangle">
<use xlink:href="#path23_fill" transform="translate(3221 5252)" fill="#FAFFFE"/>
</g>
<g id="Rectangle">
<use xlink:href="#path24_fill" transform="translate(3248 5252)" fill="#D1FFF6"/>
</g>
<g id="Rectangle 2">
<use xlink:href="#path25_fill" transform="translate(3184 5271)" fill="#20E8B6"/>
</g>
<g id="Rectangle 2.1">
<use xlink:href="#path26_fill" transform="translate(3184 5281.5)" fill="#C2FFF0"/>
</g>
</g>
<g id="tissue" mask="url(#mask0_alpha)">
<g id="Rectangle">
<use xlink:href="#path23_fill" transform="translate(3028 5252)" fill="#FAFFFE"/>
</g>
<g id="Rectangle">
<use xlink:href="#path24_fill" transform="translate(3055 5252)" fill="#D1FFF6"/>
</g>
<g id="Rectangle">
<use xlink:href="#path23_fill" transform="translate(3065 5252)" fill="#FAFFFE"/>
</g>
<g id="Rectangle">
<use xlink:href="#path24_fill" transform="translate(3092 5252)" fill="#D1FFF6"/>
</g>
<g id="Rectangle 2">
<use xlink:href="#path25_fill" transform="translate(3028 5271)" fill="#20E8B6"/>
</g>
<g id="Rectangle 2.1">
<use xlink:href="#path26_fill" transform="translate(3028 5281.5)" fill="#C2FFF0"/>
</g>
</g>
<g id="cereals" mask="url(#mask0_alpha)">
<g id="Rectangle">
<use xlink:href="#path27_fill" transform="translate(3340 5261)" fill="#FAFFFE"/>
</g>
<g id="Rectangle">
<use xlink:href="#path28_fill" transform="translate(3340 5277)" fill="#20E8B6"/>
</g>
<g id="Rectangle">
<use xlink:href="#path29_fill" transform="translate(3340 5277)" fill="#C2FFF0"/>
</g>
</g>
<g id="cereals" mask="url(#mask0_alpha)">
<g id="Rectangle">
<use xlink:href="#path27_fill" transform="translate(3280 5261)" fill="#FAFFFE"/>
</g>
<g id="Rectangle">
<use xlink:href="#path28_fill" transform="translate(3280 5277)" fill="#20E8B6"/>
</g>
<g id="Rectangle">
<use xlink:href="#path29_fill" transform="translate(3280 5277)" fill="#C2FFF0"/>
</g>
</g>
<g id="yoghurt" mask="url(#mask0_alpha)">
<g id="Rectangle">
<use xlink:href="#path30_fill" transform="translate(3285 5174)" fill="#20E8B6"/>
</g>
<g id="Rectangle">
<use xlink:href="#path31_fill" transform="translate(3287 5178)" fill="#FAFFFE"/>
</g>
<g id="Rectangle">
<use xlink:href="#path32_fill" transform="translate(3287 5185)" fill="#C2FFF0"/>
</g>
<g id="Ellipse">
<use xlink:href="#path33_fill" transform="translate(3293 5183)" fill="#20E8B6"/>
</g>
</g>
<g id="yoghurt" mask="url(#mask0_alpha)">
<g id="Rectangle">
<use xlink:href="#path30_fill" transform="translate(3314 5174)" fill="#20E8B6"/>
</g>
<g id="Rectangle">
<use xlink:href="#path31_fill" transform="translate(3316 5178)" fill="#FAFFFE"/>
</g>
<g id="Rectangle">
<use xlink:href="#path32_fill" transform="translate(3316 5185)" fill="#C2FFF0"/>
</g>
<g id="Ellipse">
<use xlink:href="#path33_fill" transform="translate(3322 5183)" fill="#20E8B6"/>
</g>
</g>
<g id="yoghurt" mask="url(#mask0_alpha)">
<g id="Rectangle">
<use xlink:href="#path30_fill" transform="translate(3343 5174)" fill="#20E8B6"/>
</g>
<g id="Rectangle">
<use xlink:href="#path31_fill" transform="translate(3345 5178)" fill="#FAFFFE"/>
</g>
<g id="Rectangle">
<use xlink:href="#path32_fill" transform="translate(3345 5185)" fill="#C2FFF0"/>
</g>
<g id="Ellipse">
<use xlink:href="#path33_fill" transform="translate(3351 5183)" fill="#20E8B6"/>
</g>
</g>
<g id="yoghurt" mask="url(#mask0_alpha)">
<g id="Rectangle">
<use xlink:href="#path30_fill" transform="translate(3343 5198)" fill="#20E8B6"/>
</g>
<g id="Rectangle">
<use xlink:href="#path31_fill" transform="translate(3345 5202)" fill="#FAFFFE"/>
</g>
<g id="Rectangle">
<use xlink:href="#path32_fill" transform="translate(3345 5209)" fill="#C2FFF0"/>
</g>
<g id="Ellipse">
<use xlink:href="#path33_fill" transform="translate(3351 5207)" fill="#20E8B6"/>
</g>
</g>
<g id="yoghurt" mask="url(#mask0_alpha)">
<g id="Rectangle">
<use xlink:href="#path30_fill" transform="translate(3314 5198)" fill="#20E8B6"/>
</g>
<g id="Rectangle">
<use xlink:href="#path31_fill" transform="translate(3316 5202)" fill="#FAFFFE"/>
</g>
<g id="Rectangle">
<use xlink:href="#path32_fill" transform="translate(3316 5209)" fill="#C2FFF0"/>
</g>
<g id="Ellipse">
<use xlink:href="#path33_fill" transform="translate(3322 5207)" fill="#20E8B6"/>
</g>
</g>
<g id="yoghurt" mask="url(#mask0_alpha)">
<g id="Rectangle">
<use xlink:href="#path30_fill" transform="translate(3285 5198)" fill="#20E8B6"/>
</g>
<g id="Rectangle">
<use xlink:href="#path31_fill" transform="translate(3287 5202)" fill="#FAFFFE"/>
</g>
<g id="Rectangle">
<use xlink:href="#path32_fill" transform="translate(3287 5209)" fill="#C2FFF0"/>
</g>
<g id="Ellipse">
<use xlink:href="#path33_fill" transform="translate(3293 5207)" fill="#20E8B6"/>
</g>
</g>
<g id="furniture" mask="url(#mask0_alpha)">
<g id="Rectangle">
<use xlink:href="#path34_fill" transform="translate(3022 5116)" fill="#20E8B6"/>
</g>
<g id="Rectangle">
<use xlink:href="#path35_fill" transform="translate(3029 5351)" fill="#20E8B6"/>
</g>
<g id="Rectangle">
<use xlink:href="#path35_fill" transform="translate(3374 5351)" fill="#20E8B6"/>
</g>
<g id="Rectangle">
<use xlink:href="#path36_fill" transform="translate(3379 5121)" fill="#20E8B6"/>
</g>
<g id="Rectangle">
<use xlink:href="#path36_fill" transform="translate(3034 5121)" fill="#20E8B6"/>
</g>
<g id="Rectangle">
<use xlink:href="#path34_fill" transform="translate(3022 5222)" fill="#20E8B6"/>
</g>
<g id="Rectangle">
<use xlink:href="#path34_fill" transform="translate(3022 5328)" fill="#20E8B6"/>
</g>
</g>
</g>
</g>
</g>
<defs>
<path id="path0_fill" d="M 0 20C 0 8.95431 8.95431 0 20 0L 656 0C 667.046 0 676 8.95431 676 20L 676 357C 676 368.046 667.046 377 656 377L 20 377C 8.95431 377 0 368.046 0 357L 0 20Z"/>
<path id="path1_fill" d="M 0 0L 676 0L 676 68L 0 68L 0 0Z"/>
<path id="path2_fill" d="M 24 64.5L 24 19.5C 22.2605 13.5449 20.2771 11.0585 15.1111 8L 15.1111 0L 8 0L 8 8C 4.2011 10.9125 2.41814 13.3571 0 19.5L 0 64.5C 0.398812 67.4858 1.33333 69.5 2.66667 70C 4 70.5 8.44444 70 8.44444 70C 10.3335 69.5003 10.8373 68.8757 12.4444 67.5C 14.0648 69.0621 15.5714 69.6263 17.7778 70L 21.3333 70C 23.6605 68.5534 23.8605 67.1397 24 64.5Z"/>
<path id="path3_fill" d="M 0 0L 24 0L 24 26L 0 26L 0 0Z"/>
<path id="path4_fill" d="M 0 0L 24 0L 24 24L 0 24L 0 0Z"/>
<path id="path5_fill" d="M 0 0L 7.11111 0L 7.11111 6L 0 6L 0 0Z"/>
<path id="path6_fill" d="M 0 0L 7.11111 0L 7.11111 1L 0 1L 0 0Z"/>
<path id="path7_fill" d="M 38 71.8481L 38 28C 35.2459 21.3665 33.6794 17.4069 25.5 14L 25.5 0L 11 0L 11 14C 4.98507 17.2443 3.82872 21.1573 0 28L 0 71.8481C 0.631452 75.1741 2.11111 77.4177 4.22222 77.9747C 6.33333 78.5316 13.3704 77.9747 13.3704 77.9747C 16.3614 77.4181 16.9554 79.5071 19.5 77.9747C 22.0656 79.7147 24.6547 77.5584 28.1481 77.9747L 33.7778 77.9747C 37.4625 76.3632 37.7791 74.7886 38 71.8481Z"/>
<path id="path8_fill" d="M 0 0L 38 0L 38 28.962L 0 28.962L 0 0Z"/>
<path id="path9_fill" d="M 0 0L 38 0L 38 26.7342L 0 26.7342L 0 0Z"/>
<path id="path10_fill" d="M 0 0L 15.2593 0L 15.2593 3.68354L 0 3.68354L 0 0Z"/>
<path id="path11_fill" d="M 0 0L 30 0L 30 49L 0 49L 0 0Z"/>
<path id="path12_fill" d="M 0 0L 30 0L 30 14L 0 14L 0 0Z"/>
<path id="path13_fill" d="M 0 10L 30 0L 30 14L 0 24L 0 10Z"/>
<path id="path14_fill" d="M 8 4C 8 6.20914 6.20914 8 4 8C 1.79086 8 0 6.20914 0 4C 0 1.79086 1.79086 0 4 0C 6.20914 0 8 1.79086 8 4Z"/>
<path id="path15_fill" d="M 0 0L 30 0L 30 5L 0 5L 0 0Z"/>
<path id="path16_fill" d="M 28.1467 15.5189C 27.1466 25.519 17.9985 30.4363 11.1467 27.5189C 1.99674 27.5066 1.51969 23.7515 0.146715 13.5189C -1.22626 3.28626 7.2892 -4.54688 15.1467 3.01887C 26.0353 -1.67198 29.1468 5.51873 28.1467 15.5189Z"/>
<path id="path17_fill" d="M 4.28014e-11 4C 8.56029e-11 1.5 0.918573 0.433668 3.03121 0C 5.28092 0.699004 6.82022 2.5 6.06242 5.5C 5.30462 8.5 4.07344 8.8737 2.27341 9C 0.50518 7.90157 0 6.5 4.28014e-11 4Z"/>
<path id="path18_fill" d="M 0 0.5C 0 0.223858 0.223858 0 0.5 0L 0.5 0C 0.776142 0 1 0.223858 1 0.5L 1 5.5C 1 5.77614 0.776142 6 0.5 6L 0.5 6C 0.223858 6 0 5.77614 0 5.5L 0 0.5Z"/>
<path id="path19_fill" d="M 0 0L 23 0L 23 30L 0 30L 0 0Z"/>
<path id="path20_fill" d="M 0 0L 23 0L 23 10L 0 10L 0 0Z"/>
<path id="path21_fill" d="M 13 6.5C 13 10.0899 10.0899 13 6.5 13C 2.91015 13 0 10.0899 0 6.5C 0 2.91015 2.91015 0 6.5 0C 10.0899 0 13 2.91015 13 6.5Z"/>
<path id="path22_fill" d="M 0 1C 0 0.447715 0.447715 0 1 0L 24 0C 24.5523 0 25 0.447715 25 1L 25 2C 25 2.55228 24.5523 3 24 3L 1 3C 0.447715 3 0 2.55228 0 2L 0 1Z"/>
<path id="path23_fill" d="M 0 3C 0 1.34315 1.34315 0 3 0L 31 0C 32.6569 0 34 1.34315 34 3L 34 73C 34 74.6569 32.6569 76 31 76L 3 76C 1.34315 76 0 74.6569 0 73L 0 3Z"/>
<path id="path24_fill" d="M 0 0L 4 0C 5.65685 0 7 1.34315 7 3L 7 73C 7 74.6569 5.65685 76 4 76L 0 76L 0 0Z"/>
<path id="path25_fill" d="M 0 5.57143L 71 0L 71 33.4286L 0 39L 0 5.57143Z"/>
<path id="path26_fill" d="M 0 5.5L 71 0L 71 11.5L 0 17.5L 0 5.5Z"/>
<path id="path27_fill" d="M 0 2C 0 0.895431 0.895431 0 2 0L 51 0C 52.1046 0 53 0.895431 53 2L 53 65C 53 66.1046 52.1046 67 51 67L 2 67C 0.895431 67 0 66.1046 0 65L 0 2Z"/>
<path id="path28_fill" d="M 0 0L 53 0L 53 37L 0 37L 0 0Z"/>
<path id="path29_fill" d="M 0 0L 53 0L 53 8L 0 8L 0 0Z"/>
<path id="path30_fill" d="M 0 0L 26 0L 26 4L 0 4L 0 0Z"/>
<path id="path31_fill" d="M 0 0L 21 0L 21 20L 0 20L 0 0Z"/>
<path id="path32_fill" d="M 0 0L 21 0L 21 7L 0 7L 0 0Z"/>
<path id="path33_fill" d="M 10 5C 10 7.76142 7.76142 10 5 10C 2.23858 10 0 7.76142 0 5C 0 2.23858 2.23858 0 5 0C 7.76142 0 10 2.23858 10 5Z"/>
<path id="path34_fill" d="M 0 3C 0 1.34315 1.34315 0 3 0L 375 0C 376.657 0 378 1.34315 378 3L 378 6C 378 7.65685 376.657 9 375 9L 3 9C 1.34315 9 0 7.65685 0 6L 0 3Z"/>
<path id="path35_fill" d="M 0 3C 0 1.34315 1.34315 0 3 0L 17 0C 18.6569 0 20 1.34315 20 3L 20 6C 20 7.65685 18.6569 9 17 9L 3 9C 1.34315 9 0 7.65685 0 6L 0 3Z"/>
<path id="path36_fill" d="M 0 3C 0 1.34315 1.34315 0 3 0L 6 0C 7.65685 0 9 1.34315 9 3L 9 231C 9 232.657 7.65685 234 6 234L 3 234C 1.34315 234 0 232.657 0 231L 0 3Z"/>
</defs>
</svg>
